<svg width="512" height="512" viewBox="0 0 512 512" fill="none" xmlns="http://www.w3.org/2000/svg">
<path d="M254.606 35.1863C172.737 56.716 56.3976 169.096 21.9266 263.827C18.2668 273.884 9 289.662 9 324.11C9 367.169 11.324 386.494 56.3976 427.027C95.1774 461.9 245.988 504.533 358.018 474.392C470.049 444.25 534.682 319.378 487.285 172.976C439.887 26.5744 336.474 13.6566 254.606 35.1863Z" fill="#FFCA95"/>
<path d="M186.322 261.663L186.737 261.639C210.887 260.222 233.185 258.914 253.029 254.35M253.029 254.35C282.042 247.678 305.807 234.048 322.438 202.946C341.567 167.17 291.584 139.172 270.531 188.168C267.106 196.141 268.795 201.08 253.029 254.35ZM253.029 254.35C250.803 261.869 248.23 270.351 245.246 279.94C242.446 288.936 236.726 303.626 228.457 317.472M228.457 317.472C218.139 334.75 203.852 350.714 186.322 352.657C155.131 356.114 157.074 294.667 185.598 300.161C197.51 302.455 210.298 308.041 228.457 317.472ZM228.457 317.472C238.145 322.504 249.362 328.631 262.789 335.937C301.385 356.935 351.232 359.656 386.319 310.66" stroke="#222222" stroke-width="3.5" stroke-linecap="round"/>
</svg>
